<?xml version="1.0" standalone="no"?>
<!DOCTYPE svg PUBLIC "-//W3C//DTD SVG 20010904//EN"
 "http://www.w3.org/TR/2001/REC-SVG-20010904/DTD/svg10.dtd">
<svg version="1.0" xmlns="http://www.w3.org/2000/svg"
 width="1000.000000pt" height="1000.000000pt" viewBox="0 0 1000.000000 1000.000000"
 preserveAspectRatio="xMidYMid meet">

<g transform="translate(0.000000,1000.000000) scale(0.100000,-0.100000)"
fill="#000000" stroke="none">
<path d="M4910 9809 c-19 -9 -388 -172 -820 -362 -432 -190 -1169 -526 -1639
-746 l-854 -400 -364 -883 c-200 -486 -521 -1261 -713 -1723 l-350 -840 594
-1305 c766 -1684 934 -2051 939 -2057 8 -8 1682 -671 2542 -1007 l810 -316
905 379 c799 335 2435 1033 2447 1045 2 2 160 386 350 852 267 656 928 2203
1052 2465 l17 35 -364 885 c-200 486 -518 1261 -707 1723 -189 461 -346 840
-348 843 -18 18 -2714 1131 -3432 1417 -25 10 -36 9 -65 -5z m-8 -61 c-16 -29
-165 -300 -330 -603 -367 -673 -573 -1049 -578 -1054 -2 -2 -4 288 -4 646 l0
651 48 20 c26 12 234 104 462 206 228 102 419 186 423 186 5 0 -5 -24 -21 -52z
m170 -165 c729 -1310 1008 -1814 1008 -1822 0 -9 -197 -182 -814 -716 -121
-105 -224 -189 -229 -187 -5 1 -72 50 -148 109 l-139 106 0 1179 0 1179 96
180 c54 98 100 179 104 179 3 0 58 -93 122 -207z m1211 -313 c279 -112 507
-208 507 -212 0 -4 -65 -125 -143 -270 -79 -145 -235 -432 -347 -638 -112
-206 -203 -376 -204 -377 -1 -1 -57 101 -125 225 -69 125 -155 282 -193 349
l-68 123 0 515 0 515 33 -13 c17 -7 260 -105 540 -217z m-2716 -841 c134 -360
243 -657 243 -660 0 -3 -183 40 -407 96 -225 55 -517 128 -650 160 l-243 60 0
312 0 312 33 18 c103 54 764 362 772 359 5 -1 119 -297 252 -657z m3838 376
c712 -295 960 -398 967 -404 5 -4 -1002 -287 -1314 -369 -17 -4 -18 23 -18
458 l0 461 23 -7 c12 -4 166 -66 342 -139z m985 -432 c0 -12 -691 -2196 -699
-2208 -4 -8 -98 -4 -296 12 -159 12 -305 22 -322 22 l-33 1 0 903 0 903 363
103 c199 56 495 140 657 185 297 84 330 92 330 79z m350 -813 c177 -432 331
-805 341 -829 11 -25 16 -48 12 -52 -7 -6 -368 -141 -745 -279 l-78 -29 0 781
0 780 67 214 c37 118 70 211 74 206 3 -4 151 -360 329 -792z m-7102 585 c16
-55 78 -257 137 -450 323 -1058 465 -1529 461 -1532 -4 -5 -118 30 -551 169
l-230 73 -3 750 -2 749 72 178 c40 98 75 175 79 170 4 -4 21 -52 37 -107z
m1536 -240 c352 -85 640 -156 642 -157 1 -2 -27 -309 -62 -683 -35 -374 -64
-690 -64 -702 0 -17 -7 -23 -32 -28 -42 -6 -1126 -145 -1139 -145 -5 0 -9 356
-9 935 0 741 3 935 13 935 6 0 300 -70 651 -155z m3022 -907 c56 -403 102
-734 101 -735 -1 -1 -167 76 -367 170 l-365 173 -3 334 -2 335 187 166 c294
260 338 298 342 294 2 -2 50 -334 107 -737z m-1548 127 c205 -153 370 -281
365 -286 -4 -4 -174 -69 -378 -144 -203 -76 -373 -139 -377 -142 -5 -2 -8 192
-8 433 0 348 3 434 13 427 6 -5 180 -135 385 -288z m1020 -586 c345 -160 628
-293 630 -294 2 -2 136 -306 298 -676 l295 -673 -90 -190 c-50 -105 -182 -388
-294 -630 l-205 -438 -179 -95 c-98 -52 -302 -160 -453 -240 -151 -80 -297
-158 -325 -173 -27 -15 -107 -57 -177 -94 l-127 -67 -226 107 -225 107 0 1737
0 1737 223 86 c122 47 223 86 225 86 1 1 284 -130 630 -290z m3482 19 c23 -57
91 -220 150 -363 330 -796 502 -1217 499 -1220 -4 -3 -416 227 -974 545 l-260
148 -3 395 -2 394 132 51 c270 105 393 151 404 151 6 1 31 -45 54 -101z
m-7512 -229 c325 -101 592 -186 592 -189 -1 -3 -235 -149 -522 -325 -286 -176
-558 -343 -604 -372 l-84 -52 0 565 c0 449 3 565 13 562 6 -3 279 -87 605
-189z m1988 -111 c-29 -57 -114 -220 -188 -363 -272 -524 -431 -830 -433 -832
-1 -2 -38 55 -83 125 l-82 129 0 466 0 467 23 4 c12 3 126 19 252 36 127 17
291 39 365 49 74 11 150 19 168 20 l32 1 -54 -102z m3404 -33 c184 -10 643
-45 647 -49 4 -3 -702 -1104 -769 -1200 -24 -34 -28 53 -28 642 0 589 1 623
18 618 9 -2 69 -7 132 -11z m-4518 -445 c527 -800 502 -760 488 -773 -10 -10
-12 -8 -7 6 4 9 5 17 2 17 -4 0 -215 -328 -215 -336 0 -3 6 -2 13 2 7 4 9 3 4
-2 -5 -5 -14 -9 -20 -9 -5 0 -12 -6 -15 -14 -3 -9 0 -11 9 -6 8 5 11 4 6 -1
-5 -5 -12 -9 -17 -9 -5 0 -103 -146 -217 -325 -268 -416 -257 -400 -266 -400
-7 0 -547 251 -840 389 l-107 52 2 616 3 616 454 284 c250 156 458 282 462
281 4 -2 121 -176 261 -388z m5773 62 c50 -27 205 -114 345 -192 140 -79 361
-202 490 -274 605 -339 680 -381 680 -386 0 -6 -1657 -825 -1690 -835 -20 -6
-20 -4 -20 895 l0 901 53 -29 c28 -17 93 -52 142 -80z m-5385 -991 c-51 -78
-94 -141 -97 -141 -3 0 5 15 16 33 12 17 54 83 93 144 39 62 73 111 75 109 2
-2 -37 -67 -87 -145z m330 -246 c458 -858 531 -997 527 -1001 -3 -3 -713 152
-830 181 l-27 7 0 516 0 515 56 89 c31 49 60 86 64 81 4 -4 99 -179 210 -388z
m6312 -237 c-381 -869 -430 -980 -436 -985 -3 -3 -126 44 -273 104 l-268 110
0 379 0 379 615 306 c338 169 616 305 618 304 2 -2 -113 -270 -256 -597z
m-2248 60 c255 -319 381 -485 373 -489 -6 -4 -178 -37 -382 -74 -203 -36 -378
-69 -387 -71 -17 -5 -18 25 -18 540 0 299 3 551 6 560 3 9 10 16 15 16 4 0
181 -217 393 -482z m-5984 -70 c624 -287 936 -432 943 -438 8 -8 -206 -94
-858 -349 -170 -67 -320 -126 -332 -131 l-23 -10 0 525 0 525 33 -14 c17 -7
124 -56 237 -108z m6426 -578 c23 -74 180 -582 349 -1128 169 -546 305 -996
301 -999 -3 -3 -302 86 -666 197 l-660 204 0 876 0 876 293 56 c160 31 303 56
317 55 22 -2 28 -13 66 -137z m-5466 111 c0 -5 -69 -292 -154 -637 -85 -346
-212 -866 -282 -1156 -71 -290 -132 -524 -136 -520 -5 5 -62 128 -128 275
l-120 266 2 728 3 727 400 162 c220 90 403 163 408 163 4 1 7 -3 7 -8z m920
-181 c316 -68 576 -125 578 -126 7 -4 90 -1249 84 -1255 -4 -4 -119 -47 -257
-97 -394 -143 -720 -260 -850 -307 -66 -24 -128 -46 -137 -50 -17 -7 -18 44
-18 980 0 786 3 986 13 982 6 -2 271 -60 587 -127z m5266 -91 c99 -39 283
-111 409 -161 127 -50 232 -92 234 -94 1 -1 -56 -148 -129 -326 -398 -976
-554 -1354 -559 -1360 -4 -5 -37 91 -74 211 l-67 219 0 791 c0 435 2 791 4
791 2 0 84 -32 182 -71z m-2241 -617 c-46 -360 -85 -656 -88 -658 -2 -3 -130
74 -283 170 l-279 174 -3 289 -2 289 52 26 c29 15 194 104 367 197 173 94 316
169 317 168 2 -1 -35 -296 -81 -655z m-1724 244 c322 -147 514 -237 522 -245
6 -6 -558 -333 -680 -395 l-33 -17 0 371 c0 203 2 370 4 370 2 0 86 -38 187
-84z m1174 -640 c248 -152 451 -281 453 -286 3 -8 -191 -391 -628 -1240 -86
-168 -219 -426 -295 -573 -76 -148 -141 -265 -145 -260 -5 4 -65 110 -134 234
l-126 226 0 1069 1 1069 126 72 126 71 86 -53 c47 -29 289 -177 536 -329z
m-1819 -313 c-87 -241 -534 -1383 -541 -1383 -5 0 -169 64 -362 142 l-353 141
0 328 0 327 73 26 c39 15 169 63 287 107 616 228 886 327 894 328 4 1 5 -7 2
-16z m2613 -690 c166 -359 301 -656 301 -661 0 -5 -24 -19 -52 -30 -29 -11
-253 -104 -498 -205 l-445 -184 -3 524 -2 525 89 171 c49 95 132 260 186 367
93 185 98 193 110 170 7 -14 148 -319 314 -677z m1179 256 c312 -94 606 -183
655 -197 48 -14 84 -29 80 -33 -7 -6 -1074 -462 -1188 -507 -27 -11 -67 -28
-87 -36 l-38 -16 0 480 c0 264 3 480 6 480 3 0 260 -77 572 -171z m-3505 -29
c84 -147 463 -817 788 -1393 65 -114 116 -207 113 -207 -2 0 -210 82 -461 181
-252 100 -477 189 -500 198 l-43 16 0 689 c0 379 2 687 4 685 2 -2 47 -78 99
-169z"/>
</g>
</svg>
